<?xml version="1.0" encoding="UTF-8" standalone="no"?>
<!DOCTYPE svg PUBLIC "-//W3C//DTD SVG 1.1//EN"
 "http://www.w3.org/Graphics/SVG/1.1/DTD/svg11.dtd">
<!-- Generated by graphviz version 2.38.0 (20140413.2041)
 -->
<!-- Title: %3 Pages: 1 -->
<svg width="318pt" height="261pt"
 viewBox="0.00 0.00 318.00 261.00" xmlns="http://www.w3.org/2000/svg" xmlns:xlink="http://www.w3.org/1999/xlink">
<g id="graph0" class="graph" transform="scale(1 1) rotate(0) translate(4 257)">
<title>%3</title>
<polygon fill="white" stroke="none" points="-4,4 -4,-257 314,-257 314,4 -4,4"/>
<g id="clust4" class="cluster"><title>cluster_3</title>
<polygon fill="none" stroke="white" points="250,-89 250,-164 302,-164 302,-89 250,-89"/>
<text text-anchor="middle" x="276" y="-148.8" font-family="Times New Roman,serif" font-size="14.00">출력</text>
</g>
<g id="clust2" class="cluster"><title>cluster_1</title>
<polygon fill="none" stroke="white" points="80,-35 80,-218 145,-218 145,-35 80,-35"/>
<text text-anchor="middle" x="112.5" y="-202.8" font-family="Times New Roman,serif" font-size="14.00">은닉층 1</text>
</g>
<g id="clust3" class="cluster"><title>cluster_2</title>
<polygon fill="none" stroke="white" points="165,-35 165,-218 230,-218 230,-35 165,-35"/>
<text text-anchor="middle" x="197.5" y="-202.8" font-family="Times New Roman,serif" font-size="14.00">은닉층 2</text>
</g>
<g id="clust1" class="cluster"><title>cluster_0</title>
<polygon fill="none" stroke="white" points="8,-8 8,-245 60,-245 60,-8 8,-8"/>
<text text-anchor="middle" x="34" y="-229.8" font-family="Times New Roman,serif" font-size="14.00">입력</text>
</g>
<!-- x[0] -->
<g id="node1" class="node"><title>x[0]</title>
<ellipse fill="none" stroke="black" cx="34" cy="-196" rx="18" ry="18"/>
<text text-anchor="middle" x="34" y="-192.3" font-family="Times New Roman,serif" font-size="14.00">x[0]</text>
</g>
<!-- h1[0] -->
<g id="node5" class="node"><title>h1[0]</title>
<ellipse fill="none" stroke="black" cx="112" cy="-115" rx="18" ry="18"/>
<text text-anchor="middle" x="112" y="-111.3" font-family="Times New Roman,serif" font-size="14.00">h1[0]</text>
</g>
<!-- x[0]&#45;&gt;h1[0] -->
<g id="edge1" class="edge"><title>x[0]&#45;&gt;h1[0]</title>
<path fill="none" stroke="black" d="M46.875,-183.344C58.9624,-170.461 77.885,-150.294 92.0471,-135.2"/>
<polygon fill="black" stroke="black" points="94.6675,-137.522 98.9576,-127.835 89.5627,-132.732 94.6675,-137.522"/>
</g>
<!-- h1[1] -->
<g id="node6" class="node"><title>h1[1]</title>
<ellipse fill="none" stroke="black" cx="112" cy="-61" rx="18" ry="18"/>
<text text-anchor="middle" x="112" y="-57.3" font-family="Times New Roman,serif" font-size="14.00">h1[1]</text>
</g>
<!-- x[0]&#45;&gt;h1[1] -->
<g id="edge2" class="edge"><title>x[0]&#45;&gt;h1[1]</title>
<path fill="none" stroke="black" d="M43.7182,-180.514C56.8321,-157.219 81.7516,-112.954 97.3067,-85.3236"/>
<polygon fill="black" stroke="black" points="100.528,-86.7367 102.384,-76.3056 94.4279,-83.3026 100.528,-86.7367"/>
</g>
<!-- h1[2] -->
<g id="node7" class="node"><title>h1[2]</title>
<ellipse fill="none" stroke="black" cx="112" cy="-169" rx="18" ry="18"/>
<text text-anchor="middle" x="112" y="-165.3" font-family="Times New Roman,serif" font-size="14.00">h1[2]</text>
</g>
<!-- x[0]&#45;&gt;h1[2] -->
<g id="edge3" class="edge"><title>x[0]&#45;&gt;h1[2]</title>
<path fill="none" stroke="black" d="M51.1176,-190.274C61.093,-186.73 74.1203,-182.102 85.4757,-178.068"/>
<polygon fill="black" stroke="black" points="86.6543,-181.364 94.9056,-174.718 84.3109,-174.767 86.6543,-181.364"/>
</g>
<!-- x[1] -->
<g id="node2" class="node"><title>x[1]</title>
<ellipse fill="none" stroke="black" cx="34" cy="-142" rx="18" ry="18"/>
<text text-anchor="middle" x="34" y="-138.3" font-family="Times New Roman,serif" font-size="14.00">x[1]</text>
</g>
<!-- x[1]&#45;&gt;h1[0] -->
<g id="edge4" class="edge"><title>x[1]&#45;&gt;h1[0]</title>
<path fill="none" stroke="black" d="M51.1176,-136.274C61.093,-132.73 74.1203,-128.102 85.4757,-124.068"/>
<polygon fill="black" stroke="black" points="86.6543,-127.364 94.9056,-120.718 84.3109,-120.767 86.6543,-127.364"/>
</g>
<!-- x[1]&#45;&gt;h1[1] -->
<g id="edge5" class="edge"><title>x[1]&#45;&gt;h1[1]</title>
<path fill="none" stroke="black" d="M46.875,-129.344C58.9624,-116.461 77.885,-96.2936 92.0471,-81.1998"/>
<polygon fill="black" stroke="black" points="94.6675,-83.5221 98.9576,-73.8347 89.5627,-78.7324 94.6675,-83.5221"/>
</g>
<!-- x[1]&#45;&gt;h1[2] -->
<g id="edge6" class="edge"><title>x[1]&#45;&gt;h1[2]</title>
<path fill="none" stroke="black" d="M51.1176,-147.726C61.093,-151.27 74.1203,-155.898 85.4757,-159.932"/>
<polygon fill="black" stroke="black" points="84.3109,-163.233 94.9056,-163.282 86.6543,-156.636 84.3109,-163.233"/>
</g>
<!-- x[2] -->
<g id="node3" class="node"><title>x[2]</title>
<ellipse fill="none" stroke="black" cx="34" cy="-88" rx="18" ry="18"/>
<text text-anchor="middle" x="34" y="-84.3" font-family="Times New Roman,serif" font-size="14.00">x[2]</text>
</g>
<!-- x[2]&#45;&gt;h1[0] -->
<g id="edge7" class="edge"><title>x[2]&#45;&gt;h1[0]</title>
<path fill="none" stroke="black" d="M51.1176,-93.726C61.093,-97.2699 74.1203,-101.898 85.4757,-105.932"/>
<polygon fill="black" stroke="black" points="84.3109,-109.233 94.9056,-109.282 86.6543,-102.636 84.3109,-109.233"/>
</g>
<!-- x[2]&#45;&gt;h1[1] -->
<g id="edge8" class="edge"><title>x[2]&#45;&gt;h1[1]</title>
<path fill="none" stroke="black" d="M51.1176,-82.274C61.093,-78.7301 74.1203,-74.102 85.4757,-70.0678"/>
<polygon fill="black" stroke="black" points="86.6543,-73.3635 94.9056,-66.7178 84.3109,-66.7674 86.6543,-73.3635"/>
</g>
<!-- x[2]&#45;&gt;h1[2] -->
<g id="edge9" class="edge"><title>x[2]&#45;&gt;h1[2]</title>
<path fill="none" stroke="black" d="M46.875,-100.656C58.9624,-113.539 77.885,-133.706 92.0471,-148.8"/>
<polygon fill="black" stroke="black" points="89.5627,-151.268 98.9576,-156.165 94.6675,-146.478 89.5627,-151.268"/>
</g>
<!-- x[3] -->
<g id="node4" class="node"><title>x[3]</title>
<ellipse fill="none" stroke="black" cx="34" cy="-34" rx="18" ry="18"/>
<text text-anchor="middle" x="34" y="-30.3" font-family="Times New Roman,serif" font-size="14.00">x[3]</text>
</g>
<!-- x[3]&#45;&gt;h1[0] -->
<g id="edge10" class="edge"><title>x[3]&#45;&gt;h1[0]</title>
<path fill="none" stroke="black" d="M46.875,-46.6563C58.9624,-59.5388 77.885,-79.7064 92.0471,-94.8002"/>
<polygon fill="black" stroke="black" points="89.5627,-97.2676 98.9576,-102.165 94.6675,-92.4779 89.5627,-97.2676"/>
</g>
<!-- x[3]&#45;&gt;h1[1] -->
<g id="edge11" class="edge"><title>x[3]&#45;&gt;h1[1]</title>
<path fill="none" stroke="black" d="M51.1176,-39.726C61.093,-43.2699 74.1203,-47.898 85.4757,-51.9322"/>
<polygon fill="black" stroke="black" points="84.3109,-55.2326 94.9056,-55.2822 86.6543,-48.6365 84.3109,-55.2326"/>
</g>
<!-- x[3]&#45;&gt;h1[2] -->
<g id="edge12" class="edge"><title>x[3]&#45;&gt;h1[2]</title>
<path fill="none" stroke="black" d="M43.7182,-49.4862C56.8321,-72.7807 81.7516,-117.046 97.3067,-144.676"/>
<polygon fill="black" stroke="black" points="94.4279,-146.697 102.384,-153.694 100.528,-143.263 94.4279,-146.697"/>
</g>
<!-- h2[0] -->
<g id="node8" class="node"><title>h2[0]</title>
<ellipse fill="none" stroke="black" cx="197" cy="-61" rx="18" ry="18"/>
<text text-anchor="middle" x="197" y="-57.3" font-family="Times New Roman,serif" font-size="14.00">h2[0]</text>
</g>
<!-- h1[0]&#45;&gt;h2[0] -->
<g id="edge13" class="edge"><title>h1[0]&#45;&gt;h2[0]</title>
<path fill="none" stroke="black" d="M127.457,-105.594C139.996,-97.4361 158.369,-85.483 172.937,-76.005"/>
<polygon fill="black" stroke="black" points="174.956,-78.8667 181.43,-70.4795 171.139,-72.9992 174.956,-78.8667"/>
</g>
<!-- h2[1] -->
<g id="node9" class="node"><title>h2[1]</title>
<ellipse fill="none" stroke="black" cx="197" cy="-169" rx="18" ry="18"/>
<text text-anchor="middle" x="197" y="-165.3" font-family="Times New Roman,serif" font-size="14.00">h2[1]</text>
</g>
<!-- h1[0]&#45;&gt;h2[1] -->
<g id="edge14" class="edge"><title>h1[0]&#45;&gt;h2[1]</title>
<path fill="none" stroke="black" d="M127.457,-124.406C139.996,-132.564 158.369,-144.517 172.937,-153.995"/>
<polygon fill="black" stroke="black" points="171.139,-157.001 181.43,-159.521 174.956,-151.133 171.139,-157.001"/>
</g>
<!-- h2[2] -->
<g id="node10" class="node"><title>h2[2]</title>
<ellipse fill="none" stroke="black" cx="197" cy="-115" rx="18" ry="18"/>
<text text-anchor="middle" x="197" y="-111.3" font-family="Times New Roman,serif" font-size="14.00">h2[2]</text>
</g>
<!-- h1[0]&#45;&gt;h2[2] -->
<g id="edge15" class="edge"><title>h1[0]&#45;&gt;h2[2]</title>
<path fill="none" stroke="black" d="M130.198,-115C141.326,-115 156.055,-115 168.756,-115"/>
<polygon fill="black" stroke="black" points="168.824,-118.5 178.824,-115 168.824,-111.5 168.824,-118.5"/>
</g>
<!-- h1[1]&#45;&gt;h2[0] -->
<g id="edge16" class="edge"><title>h1[1]&#45;&gt;h2[0]</title>
<path fill="none" stroke="black" d="M130.198,-61C141.326,-61 156.055,-61 168.756,-61"/>
<polygon fill="black" stroke="black" points="168.824,-64.5001 178.824,-61 168.824,-57.5001 168.824,-64.5001"/>
</g>
<!-- h1[1]&#45;&gt;h2[1] -->
<g id="edge17" class="edge"><title>h1[1]&#45;&gt;h2[1]</title>
<path fill="none" stroke="black" d="M123.851,-75.1191C137.971,-93.4926 162.787,-125.784 179.311,-147.285"/>
<polygon fill="black" stroke="black" points="176.54,-149.423 185.409,-155.219 182.091,-145.157 176.54,-149.423"/>
</g>
<!-- h1[1]&#45;&gt;h2[2] -->
<g id="edge18" class="edge"><title>h1[1]&#45;&gt;h2[2]</title>
<path fill="none" stroke="black" d="M127.457,-70.4061C139.996,-78.5639 158.369,-90.517 172.937,-99.995"/>
<polygon fill="black" stroke="black" points="171.139,-103.001 181.43,-105.521 174.956,-97.1333 171.139,-103.001"/>
</g>
<!-- h1[2]&#45;&gt;h2[0] -->
<g id="edge19" class="edge"><title>h1[2]&#45;&gt;h2[0]</title>
<path fill="none" stroke="black" d="M123.851,-154.881C137.971,-136.507 162.787,-104.216 179.311,-82.7153"/>
<polygon fill="black" stroke="black" points="182.091,-84.8429 185.409,-74.7811 176.54,-80.5773 182.091,-84.8429"/>
</g>
<!-- h1[2]&#45;&gt;h2[1] -->
<g id="edge20" class="edge"><title>h1[2]&#45;&gt;h2[1]</title>
<path fill="none" stroke="black" d="M130.198,-169C141.326,-169 156.055,-169 168.756,-169"/>
<polygon fill="black" stroke="black" points="168.824,-172.5 178.824,-169 168.824,-165.5 168.824,-172.5"/>
</g>
<!-- h1[2]&#45;&gt;h2[2] -->
<g id="edge21" class="edge"><title>h1[2]&#45;&gt;h2[2]</title>
<path fill="none" stroke="black" d="M127.457,-159.594C139.996,-151.436 158.369,-139.483 172.937,-130.005"/>
<polygon fill="black" stroke="black" points="174.956,-132.867 181.43,-124.479 171.139,-126.999 174.956,-132.867"/>
</g>
<!-- y -->
<g id="node11" class="node"><title>y</title>
<ellipse fill="none" stroke="black" cx="276" cy="-115" rx="18" ry="18"/>
<text text-anchor="middle" x="276" y="-111.3" font-family="Times New Roman,serif" font-size="14.00">y</text>
</g>
<!-- h2[0]&#45;&gt;y -->
<g id="edge22" class="edge"><title>h2[0]&#45;&gt;y</title>
<path fill="none" stroke="black" d="M212.123,-70.9044C223.341,-78.7714 239.249,-89.9278 252.257,-99.0503"/>
<polygon fill="black" stroke="black" points="250.509,-102.099 260.706,-104.975 254.528,-96.3681 250.509,-102.099"/>
</g>
<!-- h2[1]&#45;&gt;y -->
<g id="edge23" class="edge"><title>h2[1]&#45;&gt;y</title>
<path fill="none" stroke="black" d="M212.123,-159.096C223.341,-151.229 239.249,-140.072 252.257,-130.95"/>
<polygon fill="black" stroke="black" points="254.528,-133.632 260.706,-125.025 250.509,-127.901 254.528,-133.632"/>
</g>
<!-- h2[2]&#45;&gt;y -->
<g id="edge24" class="edge"><title>h2[2]&#45;&gt;y</title>
<path fill="none" stroke="black" d="M215.089,-115C224.659,-115 236.817,-115 247.677,-115"/>
<polygon fill="black" stroke="black" points="247.959,-118.5 257.959,-115 247.959,-111.5 247.959,-118.5"/>
</g>
</g>
</svg>
