<?xml version="1.0" encoding="UTF-8" standalone="no"?>
<!DOCTYPE svg PUBLIC "-//W3C//DTD SVG 1.1//EN"
 "http://www.w3.org/Graphics/SVG/1.1/DTD/svg11.dtd">
<!-- Generated by graphviz version 2.38.0 (20140413.2041)
 -->
<!-- Title: %3 Pages: 1 -->
<svg width="223pt" height="261pt"
 viewBox="0.00 0.00 223.00 261.00" xmlns="http://www.w3.org/2000/svg" xmlns:xlink="http://www.w3.org/1999/xlink">
<g id="graph0" class="graph" transform="scale(1 1) rotate(0) translate(4 257)">
<title>%3</title>
<polygon fill="white" stroke="none" points="-4,4 -4,-257 219,-257 219,4 -4,4"/>
<g id="clust2" class="cluster"><title>cluster_1</title>
<polygon fill="none" stroke="white" points="80,-35 80,-218 135,-218 135,-35 80,-35"/>
<text text-anchor="middle" x="107.5" y="-202.8" font-family="Times New Roman,serif" font-size="14.00">은닉층</text>
</g>
<g id="clust3" class="cluster"><title>cluster_2</title>
<polygon fill="none" stroke="white" points="155,-89 155,-164 207,-164 207,-89 155,-89"/>
<text text-anchor="middle" x="181" y="-148.8" font-family="Times New Roman,serif" font-size="14.00">출력</text>
</g>
<g id="clust1" class="cluster"><title>cluster_0</title>
<polygon fill="none" stroke="white" points="8,-8 8,-245 60,-245 60,-8 8,-8"/>
<text text-anchor="middle" x="34" y="-229.8" font-family="Times New Roman,serif" font-size="14.00">입력</text>
</g>
<!-- x[0] -->
<g id="node1" class="node"><title>x[0]</title>
<ellipse fill="none" stroke="black" cx="34" cy="-196" rx="18" ry="18"/>
<text text-anchor="middle" x="34" y="-192.3" font-family="Times New Roman,serif" font-size="14.00">x[0]</text>
</g>
<!-- h0 -->
<g id="node5" class="node"><title>h0</title>
<ellipse fill="none" stroke="black" cx="107" cy="-115" rx="18" ry="18"/>
<text text-anchor="middle" x="107" y="-111.3" font-family="Times New Roman,serif" font-size="14.00">h[0]</text>
</g>
<!-- x[0]&#45;&gt;h0 -->
<g id="edge1" class="edge"><title>x[0]&#45;&gt;h0</title>
<path fill="none" stroke="black" d="M46.7242,-182.624C57.8903,-169.886 74.8646,-150.521 87.7914,-135.773"/>
<polygon fill="black" stroke="black" points="90.5343,-137.954 94.494,-128.127 85.2703,-133.34 90.5343,-137.954"/>
</g>
<!-- h1 -->
<g id="node6" class="node"><title>h1</title>
<ellipse fill="none" stroke="black" cx="107" cy="-61" rx="18" ry="18"/>
<text text-anchor="middle" x="107" y="-57.3" font-family="Times New Roman,serif" font-size="14.00">h[1]</text>
</g>
<!-- x[0]&#45;&gt;h1 -->
<g id="edge2" class="edge"><title>x[0]&#45;&gt;h1</title>
<path fill="none" stroke="black" d="M43.2836,-180.25C55.5216,-156.98 78.5442,-113.205 93.0322,-85.6571"/>
<polygon fill="black" stroke="black" points="96.2121,-87.1299 97.7692,-76.6501 90.0167,-83.8715 96.2121,-87.1299"/>
</g>
<!-- h2 -->
<g id="node7" class="node"><title>h2</title>
<ellipse fill="none" stroke="black" cx="107" cy="-169" rx="18" ry="18"/>
<text text-anchor="middle" x="107" y="-165.3" font-family="Times New Roman,serif" font-size="14.00">h[2]</text>
</g>
<!-- x[0]&#45;&gt;h2 -->
<g id="edge3" class="edge"><title>x[0]&#45;&gt;h2</title>
<path fill="none" stroke="black" d="M51.111,-189.873C59.7349,-186.594 70.5609,-182.477 80.3143,-178.768"/>
<polygon fill="black" stroke="black" points="81.8499,-181.928 89.9528,-175.102 79.3617,-175.386 81.8499,-181.928"/>
</g>
<!-- x[1] -->
<g id="node2" class="node"><title>x[1]</title>
<ellipse fill="none" stroke="black" cx="34" cy="-142" rx="18" ry="18"/>
<text text-anchor="middle" x="34" y="-138.3" font-family="Times New Roman,serif" font-size="14.00">x[1]</text>
</g>
<!-- x[1]&#45;&gt;h0 -->
<g id="edge4" class="edge"><title>x[1]&#45;&gt;h0</title>
<path fill="none" stroke="black" d="M51.111,-135.873C59.7349,-132.594 70.5609,-128.477 80.3143,-124.768"/>
<polygon fill="black" stroke="black" points="81.8499,-127.928 89.9528,-121.102 79.3617,-121.386 81.8499,-127.928"/>
</g>
<!-- x[1]&#45;&gt;h1 -->
<g id="edge5" class="edge"><title>x[1]&#45;&gt;h1</title>
<path fill="none" stroke="black" d="M46.7242,-128.624C57.8903,-115.886 74.8646,-96.5207 87.7914,-81.7732"/>
<polygon fill="black" stroke="black" points="90.5343,-83.9537 94.494,-74.1266 85.2703,-79.3396 90.5343,-83.9537"/>
</g>
<!-- x[1]&#45;&gt;h2 -->
<g id="edge6" class="edge"><title>x[1]&#45;&gt;h2</title>
<path fill="none" stroke="black" d="M51.111,-148.127C59.7349,-151.406 70.5609,-155.523 80.3143,-159.232"/>
<polygon fill="black" stroke="black" points="79.3617,-162.614 89.9528,-162.898 81.8499,-156.072 79.3617,-162.614"/>
</g>
<!-- x[2] -->
<g id="node3" class="node"><title>x[2]</title>
<ellipse fill="none" stroke="black" cx="34" cy="-88" rx="18" ry="18"/>
<text text-anchor="middle" x="34" y="-84.3" font-family="Times New Roman,serif" font-size="14.00">x[2]</text>
</g>
<!-- x[2]&#45;&gt;h0 -->
<g id="edge7" class="edge"><title>x[2]&#45;&gt;h0</title>
<path fill="none" stroke="black" d="M51.111,-94.1267C59.7349,-97.4062 70.5609,-101.523 80.3143,-105.232"/>
<polygon fill="black" stroke="black" points="79.3617,-108.614 89.9528,-108.898 81.8499,-102.072 79.3617,-108.614"/>
</g>
<!-- x[2]&#45;&gt;h1 -->
<g id="edge8" class="edge"><title>x[2]&#45;&gt;h1</title>
<path fill="none" stroke="black" d="M51.111,-81.8733C59.7349,-78.5938 70.5609,-74.4768 80.3143,-70.7678"/>
<polygon fill="black" stroke="black" points="81.8499,-73.9285 89.9528,-67.1025 79.3617,-67.3856 81.8499,-73.9285"/>
</g>
<!-- x[2]&#45;&gt;h2 -->
<g id="edge9" class="edge"><title>x[2]&#45;&gt;h2</title>
<path fill="none" stroke="black" d="M46.7242,-101.376C57.8903,-114.114 74.8646,-133.479 87.7914,-148.227"/>
<polygon fill="black" stroke="black" points="85.2703,-150.66 94.494,-155.873 90.5343,-146.046 85.2703,-150.66"/>
</g>
<!-- x[3] -->
<g id="node4" class="node"><title>x[3]</title>
<ellipse fill="none" stroke="black" cx="34" cy="-34" rx="18" ry="18"/>
<text text-anchor="middle" x="34" y="-30.3" font-family="Times New Roman,serif" font-size="14.00">x[3]</text>
</g>
<!-- x[3]&#45;&gt;h0 -->
<g id="edge10" class="edge"><title>x[3]&#45;&gt;h0</title>
<path fill="none" stroke="black" d="M46.7242,-47.3755C57.8903,-60.1143 74.8646,-79.4793 87.7914,-94.2268"/>
<polygon fill="black" stroke="black" points="85.2703,-96.6604 94.494,-101.873 90.5343,-92.0463 85.2703,-96.6604"/>
</g>
<!-- x[3]&#45;&gt;h1 -->
<g id="edge11" class="edge"><title>x[3]&#45;&gt;h1</title>
<path fill="none" stroke="black" d="M51.111,-40.1267C59.7349,-43.4062 70.5609,-47.5232 80.3143,-51.2322"/>
<polygon fill="black" stroke="black" points="79.3617,-54.6144 89.9528,-54.8975 81.8499,-48.0715 79.3617,-54.6144"/>
</g>
<!-- x[3]&#45;&gt;h2 -->
<g id="edge12" class="edge"><title>x[3]&#45;&gt;h2</title>
<path fill="none" stroke="black" d="M43.2836,-49.7504C55.5216,-73.02 78.5442,-116.795 93.0322,-144.343"/>
<polygon fill="black" stroke="black" points="90.0167,-146.128 97.7692,-153.35 96.2121,-142.87 90.0167,-146.128"/>
</g>
<!-- y -->
<g id="node8" class="node"><title>y</title>
<ellipse fill="none" stroke="black" cx="181" cy="-115" rx="18" ry="18"/>
<text text-anchor="middle" x="181" y="-111.3" font-family="Times New Roman,serif" font-size="14.00">y</text>
</g>
<!-- h0&#45;&gt;y -->
<g id="edge13" class="edge"><title>h0&#45;&gt;y</title>
<path fill="none" stroke="black" d="M125.063,-115C133.193,-115 143.124,-115 152.295,-115"/>
<polygon fill="black" stroke="black" points="152.559,-118.5 162.559,-115 152.559,-111.5 152.559,-118.5"/>
</g>
<!-- h1&#45;&gt;y -->
<g id="edge14" class="edge"><title>h1&#45;&gt;y</title>
<path fill="none" stroke="black" d="M121.882,-71.4117C132.142,-79.1063 146.314,-89.7355 158.095,-98.5711"/>
<polygon fill="black" stroke="black" points="156.06,-101.42 166.16,-104.62 160.26,-95.8202 156.06,-101.42"/>
</g>
<!-- h2&#45;&gt;y -->
<g id="edge15" class="edge"><title>h2&#45;&gt;y</title>
<path fill="none" stroke="black" d="M121.882,-158.588C132.142,-150.894 146.314,-140.265 158.095,-131.429"/>
<polygon fill="black" stroke="black" points="160.26,-134.18 166.16,-125.38 156.06,-128.58 160.26,-134.18"/>
</g>
</g>
</svg>
